M48
; DRILL file {KiCad (6.0.7)} date Sun Oct 30 21:54:17 2022
; FORMAT={-:-/ absolute / inch / decimal}
; #@! TF.CreationDate,2022-10-30T21:54:17-07:00
; #@! TF.GenerationSoftware,Kicad,Pcbnew,(6.0.7)
; #@! TF.FileFunction,Plated,1,2,PTH
FMAT,2
INCH
; #@! TA.AperFunction,Plated,PTH,ViaDrill
T1C0.0157
; #@! TA.AperFunction,Plated,PTH,ComponentDrill
T2C0.0276
; #@! TA.AperFunction,Plated,PTH,ComponentDrill
T3C0.0394
; #@! TA.AperFunction,Plated,PTH,ComponentDrill
T4C0.0579
; #@! TA.AperFunction,Plated,PTH,ComponentDrill
T5C0.1024
%
G90
G05
T1
X2.4375Y-3.7812
X2.6562Y-3.5938
X2.8105Y-3.4395
X2.875Y-3.1875
X2.9062Y-3.4688
X2.9062Y-3.7188
X2.9375Y-3.5625
X2.9688Y-3.2812
X2.9688Y-3.5
X3.0Y-3.25
X3.0Y-3.4062
X3.0Y-3.5312
X3.0346Y-3.6863
X3.0394Y-3.5312
X3.0625Y-3.3125
X3.0932Y-3.625
X3.0938Y-3.5312
X3.1204Y-3.3079
X3.1296Y-3.4421
X3.25Y-3.1875
X3.25Y-3.6562
X3.2812Y-3.25
X3.3125Y-3.5938
X3.5938Y-3.4062
X3.6875Y-3.5938
X3.8438Y-3.3125
X3.8438Y-3.375
X3.8438Y-3.4375
X3.875Y-3.5625
X3.9375Y-3.1875
X4.375Y-3.1562
X4.6875Y-3.2188
X5.1875Y-3.5938
X5.9062Y-3.5312
X6.1875Y-3.25
T3
X3.9688Y-3.3125
X3.9688Y-3.4109
X3.9688Y-3.5094
X4.5396Y-3.3125
X4.5396Y-3.5094
T4
X4.85Y-3.3375
X4.9016Y-3.28
X5.0984Y-3.2603
X5.1Y-3.2375
X5.6Y-3.3375
X5.6516Y-3.28
X5.8484Y-3.2603
X5.85Y-3.2375
X6.35Y-3.3375
X6.4016Y-3.28
X6.5984Y-3.2603
X6.6Y-3.2375
X7.1Y-3.3375
X7.1516Y-3.28
X7.3484Y-3.2603
X7.35Y-3.2375
T5
X4.264Y-3.1905
X4.264Y-3.6314
T2
G00X2.1688Y-3.1014
M15
G01X2.1688Y-3.1486
M16
G05
G00X2.1688Y-3.2785
M15
G01X2.1688Y-3.3258
M16
G05
G00X2.4562Y-3.1014
M15
G01X2.4562Y-3.1486
M16
G05
G00X2.4562Y-3.2785
M15
G01X2.4562Y-3.3258
M16
G05
T0
M30
